<svg id="Layer_2_copy" data-name="Layer 2 copy" xmlns="http://www.w3.org/2000/svg" viewBox="0 0 372 372"><defs><style>.cls-1{fill:none;stroke-width:7px;}.cls-1,.cls-2{stroke:#000;stroke-miterlimit:10;}.cls-2{stroke-width:3px;}</style></defs><title>logo</title><rect class="cls-1" x="3.5" y="3.5" width="365" height="365" rx="62.5" ry="62.5"/><rect class="cls-2" x="71.4" y="125.18" width="57.89" height="5"/><path class="cls-2" d="M226.35,186.73h-7.09l-61.49-61h6.07a28,28,0,0,0,0-56h-70l-5-5h75a33,33,0,0,1,5.59,65.53Z" transform="translate(-2.5 -1)"/><polygon class="cls-2" points="306.34 63.73 306.34 308.27 74.34 76.27 74.34 185.23 69.34 185.23 69.34 64.19 301.34 296.19 301.34 133.69 248.93 185.73 241.84 185.73 300.29 127.68 235.86 63.73 242.95 63.73 301.34 121.68 301.34 63.73 306.34 63.73"/><rect class="cls-2" x="245.32" y="241.21" width="58.52" height="5"/><path class="cls-2" d="M291.84,308.73h-75.5a33,33,0,0,1-5.61-65.52l-63.38-62.48h7.13l68,67h-6.1a28,28,0,1,0,0,56h70.5Z" transform="translate(-2.5 -1)"/><rect class="cls-2" x="102.84" y="302.73" width="58" height="5"/><path class="cls-2" d="M136.84,306.23h-5v-59.5H68.16l68.68-66.39v61.39h26.5v5h-26.5Zm-56.32-64.5h51.32V192.12Z" transform="translate(-2.5 -1)"/></svg>